<svg width="25" height="16" viewBox="0 0 25 16" fill="none" xmlns="http://www.w3.org/2000/svg">
<path fill-rule="evenodd" clip-rule="evenodd" d="M24.2527 8C24.2527 7.76429 24.1614 7.53823 23.999 7.37155C23.8366 7.20487 23.6163 7.11124 23.3866 7.11124H2.95845L8.40976 1.51913C8.49029 1.4365 8.55417 1.3384 8.59775 1.23043C8.64133 1.12247 8.66376 1.00675 8.66376 0.889887C8.66376 0.773025 8.64133 0.657308 8.59775 0.549342C8.55417 0.441376 8.49029 0.343275 8.40976 0.260642C8.32924 0.178008 8.23364 0.11246 8.12842 0.0677387C8.02321 0.0230177 7.91044 0 7.79656 0C7.68267 0 7.5699 0.0230177 7.46469 0.0677387C7.35948 0.11246 7.26388 0.178008 7.18335 0.260642L0.254453 7.37075C0.173795 7.45331 0.109802 7.55139 0.0661385 7.65937C0.0224753 7.76734 0 7.8831 0 8C0 8.1169 0.0224753 8.23266 0.0661385 8.34063C0.109802 8.44861 0.173795 8.54669 0.254453 8.62924L7.18335 15.7394C7.26388 15.822 7.35948 15.8875 7.46469 15.9323C7.5699 15.977 7.68267 16 7.79656 16C7.91044 16 8.02321 15.977 8.12842 15.9323C8.23364 15.8875 8.32924 15.822 8.40976 15.7394C8.49029 15.6567 8.55417 15.5586 8.59775 15.4507C8.64133 15.3427 8.66376 15.227 8.66376 15.1101C8.66376 14.9933 8.64133 14.8775 8.59775 14.7696C8.55417 14.6616 8.49029 14.5635 8.40976 14.4809L2.95845 8.88876H23.3866C23.6163 8.88876 23.8366 8.79513 23.999 8.62845C24.1614 8.46178 24.2527 8.23571 24.2527 8Z" fill="white"/>
</svg>
