<svg width="25" height="16" viewBox="0 0 25 16" fill="none" xmlns="http://www.w3.org/2000/svg">
<path fill-rule="evenodd" clip-rule="evenodd" d="M0.155029 8C0.155029 7.76429 0.24628 7.53823 0.408708 7.37155C0.571135 7.20487 0.791434 7.11124 1.02114 7.11124H21.4493L15.998 1.51913C15.8353 1.35225 15.744 1.1259 15.744 0.889887C15.744 0.653874 15.8353 0.427528 15.998 0.260642C16.1606 0.0937555 16.3812 5.56065e-09 16.6112 0C16.8412 -5.56065e-09 17.0617 0.0937555 17.2244 0.260642L24.1533 7.37075C24.2339 7.45331 24.2979 7.55139 24.3416 7.65937C24.3852 7.76734 24.4077 7.8831 24.4077 8C24.4077 8.1169 24.3852 8.23266 24.3416 8.34063C24.2979 8.44861 24.2339 8.54669 24.1533 8.62924L17.2244 15.7394C17.0617 15.9062 16.8412 16 16.6112 16C16.3812 16 16.1606 15.9062 15.998 15.7394C15.8353 15.5725 15.744 15.3461 15.744 15.1101C15.744 14.8741 15.8353 14.6478 15.998 14.4809L21.4493 8.88876H1.02114C0.791434 8.88876 0.571135 8.79513 0.408708 8.62845C0.24628 8.46178 0.155029 8.23571 0.155029 8Z" fill="white"/>
</svg>
