<svg width="23" height="25" viewBox="0 0 23 25" fill="none" xmlns="http://www.w3.org/2000/svg">
<path d="M11.5 1.5625C12.536 1.5625 13.5296 1.97405 14.2621 2.70661C14.9947 3.43918 15.4062 4.43275 15.4062 5.46875V6.25H7.59375V5.46875C7.59375 4.43275 8.0053 3.43918 8.73786 2.70661C9.47043 1.97405 10.464 1.5625 11.5 1.5625ZM16.9688 6.25V5.46875C16.9688 4.01835 16.3926 2.62735 15.367 1.60176C14.3414 0.57617 12.9504 0 11.5 0C10.0496 0 8.6586 0.57617 7.63301 1.60176C6.60742 2.62735 6.03125 4.01835 6.03125 5.46875V6.25H0.5625V21.875C0.5625 22.7038 0.89174 23.4987 1.47779 24.0847C2.06384 24.6708 2.8587 25 3.6875 25H19.3125C20.1413 25 20.9362 24.6708 21.5222 24.0847C22.1083 23.4987 22.4375 22.7038 22.4375 21.875V6.25H16.9688Z" fill="black"/>
</svg>
